{
  "asset": {
    "version": "2.0",
    "generator": "THREE.GLTFExporter"
  },
  "scenes": [
    {
      "nodes": [
        0
      ]
    }
  ],
  "scene": 0,
  "nodes": [
    {
      "children": [
        18
      ],
      "matrix": [
        0.01,
        0,
        0,
        0,
        0,
        0.01,
        0,
        0,
        0,
        0,
        0.01,
        0,
        0,
        0,
        0,
        1
      ]
    },
    {
      "matrix": [
        38.13443374633789,
        0,
        0,
        0,
        0,
        -0.000010758866625433519,
        -38.13443374633637,
        0,
        0,
        38.13443374633637,
        -0.000010758866625433519,
        0,
        -17.416385650634766,
        69.80565643310547,
        0.9586840867996216,
        1
      ],
      "name": "Cube003",
      "mesh": 0
    },
    {
      "matrix": [
        -24.84680484485717,
        -16.9801603145633,
        -23.42104162723171,
        0,
        -12.356069424063813,
        34.14542528942341,
        -11.647046025355433,
        0,
        26.157195438498764,
        0.0000035851809868129092,
        -27.7495254724473,
        0,
        263.21087646484375,
        87.28301239013672,
        265.0698547363281,
        1
      ],
      "name": "Camera"
    },
    {
      "matrix": [
        -5.147970206588601,
        37.778339921296336,
        -0.729333538556078,
        0,
        35.70040797759603,
        4.621874910446583,
        -12.583920395777609,
        0,
        -12.378017457724109,
        -2.3815521603636047,
        -35.99097062982288,
        0,
        -125.48006439208984,
        -163.04849243164062,
        167.77951049804688,
        1
      ],
      "name": "Light005"
    },
    {
      "matrix": [
        -5.147970206588601,
        37.778339921296336,
        -0.729333538556078,
        0,
        35.70040797759603,
        4.621874910446583,
        -12.583920395777609,
        0,
        -12.378017457724109,
        -2.3815521603636047,
        -35.99097062982288,
        0,
        -125.48006439208984,
        216.7705078125,
        167.77951049804688,
        1
      ],
      "name": "Light006"
    },
    {
      "matrix": [
        38.13443374633789,
        0,
        0,
        0,
        0,
        -0.000010758866625433519,
        -38.13443374633637,
        0,
        0,
        38.13443374633637,
        -0.000010758866625433519,
        0,
        -17.416385650634766,
        -15.99682903289795,
        86.76116180419922,
        1
      ],
      "name": "Cube002",
      "mesh": 1
    },
    {
      "matrix": [
        38.13443374633789,
        0,
        0,
        0,
        0,
        -0.000010758866625433519,
        -38.13443374633637,
        0,
        0,
        38.13443374633637,
        -0.000010758866625433519,
        0,
        -17.416385650634766,
        -15.99682903289795,
        -84.84380340576172,
        1
      ],
      "name": "Cube004",
      "mesh": 2
    },
    {
      "matrix": [
        -5.147970206588601,
        37.778339921296336,
        -0.729333538556078,
        0,
        35.70040797759603,
        4.621874910446583,
        -12.583920395777609,
        0,
        -12.378017457724109,
        -2.3815521603636047,
        -35.99097062982288,
        0,
        -125.48006439208984,
        216.7705078125,
        167.77951049804688,
        1
      ],
      "name": "Light002"
    },
    {
      "matrix": [
        38.13443374633789,
        0,
        0,
        0,
        0,
        -0.000010758866625433519,
        -38.13443374633637,
        0,
        0,
        38.13443374633637,
        -0.000010758866625433519,
        0,
        -17.416385650634766,
        -15.99682903289795,
        0.9586840867996216,
        1
      ],
      "name": "Cube006",
      "mesh": 3
    },
    {
      "matrix": [
        -5.147964677897324,
        37.7783330118305,
        -0.7293315461748623,
        0,
        8.42113339441912,
        0.42954450166577346,
        -37.19052353797029,
        0,
        -36.8350145451491,
        -5.181596809513645,
        -8.400481299234098,
        0,
        -291.84765625,
        214.7705078125,
        -4.833676338195801,
        1
      ],
      "name": "Light004"
    },
    {
      "matrix": [
        38.13443374633789,
        0,
        0,
        0,
        0,
        -0.000010758866625433519,
        -38.13443374633637,
        0,
        0,
        38.13443374633637,
        -0.000010758866625433519,
        0,
        -103.21891021728516,
        -15.99682903289795,
        0.9586840867996216,
        1
      ],
      "name": "Cube001",
      "mesh": 4
    },
    {
      "matrix": [
        38.13443374633789,
        0,
        0,
        0,
        0,
        -0.000010758866625433519,
        -38.13443374633637,
        0,
        0,
        38.13443374633637,
        -0.000010758866625433519,
        0,
        68.38609313964844,
        -15.99682903289795,
        0.9586840867996216,
        1
      ],
      "name": "Cube",
      "mesh": 5
    },
    {
      "matrix": [
        -8.891066608202644,
        22.862758836295775,
        -29.1972447834341,
        0,
        27.387703516155828,
        24.291210551352393,
        10.681082916643826,
        0,
        25.00194872709872,
        -18.478812539130708,
        -22.083269531534537,
        0,
        -17.178054809570312,
        26.86094093322754,
        18.292531967163086,
        1
      ],
      "name": "Light003"
    },
    {
      "matrix": [
        38.13443374633789,
        0,
        0,
        0,
        0,
        -0.000010758866625433519,
        -38.13443374633637,
        0,
        0,
        38.13443374633637,
        -0.000010758866625433519,
        0,
        -17.416385650634766,
        -101.79932403564453,
        0.9586840867996216,
        1
      ],
      "name": "Cube005",
      "mesh": 6
    },
    {
      "matrix": [
        -8.891066608202644,
        22.862758836295775,
        -29.1972447834341,
        0,
        27.387703516155828,
        24.291210551352393,
        10.681082916643826,
        0,
        25.00194872709872,
        -18.478812539130708,
        -22.083269531534537,
        0,
        -33.57604217529297,
        -13.942825317382812,
        -216.6156005859375,
        1
      ],
      "name": "Light001"
    },
    {
      "name": "fb",
      "children": [
        1,
        2,
        3,
        4,
        5,
        6,
        7,
        8,
        9,
        10,
        11,
        12,
        13,
        14
      ]
    },
    {
      "matrix": [
        0.8458798312722255,
        1.3961072145574072e-8,
        0.5333735192591313,
        0,
        0.18644930303711116,
        0.9369116951555825,
        -0.29569094148733804,
        0,
        -0.499723892208334,
        0.3495661246183513,
        0.7925147040121467,
        0,
        -198.49748526082195,
        138.85266994635847,
        314.7981880223027,
        1
      ],
      "name": "Personal Camera",
      "camera": 0
    },
    {
      "matrix": [
        1,
        0,
        0,
        0,
        0,
        1,
        0,
        0,
        0,
        0,
        1,
        0,
        0,
        1,
        0,
        1
      ],
      "name": "Default Ambient Light"
    },
    {
      "name": "Scene 1",
      "children": [
        15,
        16,
        17
      ]
    }
  ],
  "bufferViews": [
    {
      "buffer": 0,
      "byteOffset": 0,
      "byteLength": 432,
      "target": 34962,
      "byteStride": 12
    },
    {
      "buffer": 0,
      "byteOffset": 432,
      "byteLength": 432,
      "target": 34962,
      "byteStride": 12
    },
    {
      "buffer": 0,
      "byteOffset": 864,
      "byteLength": 288,
      "target": 34962,
      "byteStride": 8
    },
    {
      "buffer": 0,
      "byteOffset": 1152,
      "byteLength": 432,
      "target": 34962,
      "byteStride": 12
    },
    {
      "buffer": 0,
      "byteOffset": 1584,
      "byteLength": 432,
      "target": 34962,
      "byteStride": 12
    },
    {
      "buffer": 0,
      "byteOffset": 2016,
      "byteLength": 288,
      "target": 34962,
      "byteStride": 8
    },
    {
      "buffer": 0,
      "byteOffset": 2304,
      "byteLength": 432,
      "target": 34962,
      "byteStride": 12
    },
    {
      "buffer": 0,
      "byteOffset": 2736,
      "byteLength": 432,
      "target": 34962,
      "byteStride": 12
    },
    {
      "buffer": 0,
      "byteOffset": 3168,
      "byteLength": 288,
      "target": 34962,
      "byteStride": 8
    },
    {
      "buffer": 0,
      "byteOffset": 3456,
      "byteLength": 432,
      "target": 34962,
      "byteStride": 12
    },
    {
      "buffer": 0,
      "byteOffset": 3888,
      "byteLength": 432,
      "target": 34962,
      "byteStride": 12
    },
    {
      "buffer": 0,
      "byteOffset": 4320,
      "byteLength": 288,
      "target": 34962,
      "byteStride": 8
    },
    {
      "buffer": 0,
      "byteOffset": 4608,
      "byteLength": 432,
      "target": 34962,
      "byteStride": 12
    },
    {
      "buffer": 0,
      "byteOffset": 5040,
      "byteLength": 432,
      "target": 34962,
      "byteStride": 12
    },
    {
      "buffer": 0,
      "byteOffset": 5472,
      "byteLength": 288,
      "target": 34962,
      "byteStride": 8
    },
    {
      "buffer": 0,
      "byteOffset": 5760,
      "byteLength": 432,
      "target": 34962,
      "byteStride": 12
    },
    {
      "buffer": 0,
      "byteOffset": 6192,
      "byteLength": 432,
      "target": 34962,
      "byteStride": 12
    },
    {
      "buffer": 0,
      "byteOffset": 6624,
      "byteLength": 288,
      "target": 34962,
      "byteStride": 8
    },
    {
      "buffer": 0,
      "byteOffset": 6912,
      "byteLength": 432,
      "target": 34962,
      "byteStride": 12
    },
    {
      "buffer": 0,
      "byteOffset": 7344,
      "byteLength": 432,
      "target": 34962,
      "byteStride": 12
    },
    {
      "buffer": 0,
      "byteOffset": 7776,
      "byteLength": 288,
      "target": 34962,
      "byteStride": 8
    }
  ],
  "buffers": [
    {
      "byteLength": 8064,
      "uri": "data:application/octet-stream;base64,"
    }
  ],
  "accessors": [
    {
      "bufferView": 0,
      "componentType": 5126,
      "count": 36,
      "max": [
        1,
        1,
        1
      ],
      "min": [
        -1,
        -1,
        -1
      ],
      "type": "VEC3"
    },
    {
      "bufferView": 1,
      "componentType": 5126,
      "count": 36,
      "max": [
        1,
        1,
        1
      ],
      "min": [
        -1,
        -1,
        -1
      ],
      "type": "VEC3"
    },
    {
      "bufferView": 2,
      "componentType": 5126,
      "count": 36,
      "max": [
        0.875,
        1
      ],
      "min": [
        0.125,
        0
      ],
      "type": "VEC2"
    },
    {
      "bufferView": 3,
      "componentType": 5126,
      "count": 36,
      "max": [
        1,
        1,
        1
      ],
      "min": [
        -1,
        -1,
        -1
      ],
      "type": "VEC3"
    },
    {
      "bufferView": 4,
      "componentType": 5126,
      "count": 36,
      "max": [
        1,
        1,
        1
      ],
      "min": [
        -1,
        -1,
        -1
      ],
      "type": "VEC3"
    },
    {
      "bufferView": 5,
      "componentType": 5126,
      "count": 36,
      "max": [
        0.875,
        1
      ],
      "min": [
        0.125,
        0
      ],
      "type": "VEC2"
    },
    {
      "bufferView": 6,
      "componentType": 5126,
      "count": 36,
      "max": [
        1,
        1,
        1
      ],
      "min": [
        -1,
        -1,
        -1
      ],
      "type": "VEC3"
    },
    {
      "bufferView": 7,
      "componentType": 5126,
      "count": 36,
      "max": [
        1,
        1,
        1
      ],
      "min": [
        -1,
        -1,
        -1
      ],
      "type": "VEC3"
    },
    {
      "bufferView": 8,
      "componentType": 5126,
      "count": 36,
      "max": [
        0.875,
        1
      ],
      "min": [
        0.125,
        0
      ],
      "type": "VEC2"
    },
    {
      "bufferView": 9,
      "componentType": 5126,
      "count": 36,
      "max": [
        1,
        1,
        1
      ],
      "min": [
        -1,
        -1,
        -1
      ],
      "type": "VEC3"
    },
    {
      "bufferView": 10,
      "componentType": 5126,
      "count": 36,
      "max": [
        1,
        1,
        1
      ],
      "min": [
        -1,
        -1,
        -1
      ],
      "type": "VEC3"
    },
    {
      "bufferView": 11,
      "componentType": 5126,
      "count": 36,
      "max": [
        0.875,
        1
      ],
      "min": [
        0.125,
        0
      ],
      "type": "VEC2"
    },
    {
      "bufferView": 12,
      "componentType": 5126,
      "count": 36,
      "max": [
        1,
        1,
        1
      ],
      "min": [
        -1,
        -1,
        -1
      ],
      "type": "VEC3"
    },
    {
      "bufferView": 13,
      "componentType": 5126,
      "count": 36,
      "max": [
        1,
        1,
        1
      ],
      "min": [
        -1,
        -1,
        -1
      ],
      "type": "VEC3"
    },
    {
      "bufferView": 14,
      "componentType": 5126,
      "count": 36,
      "max": [
        0.875,
        1
      ],
      "min": [
        0.125,
        0
      ],
      "type": "VEC2"
    },
    {
      "bufferView": 15,
      "componentType": 5126,
      "count": 36,
      "max": [
        1,
        1,
        1
      ],
      "min": [
        -1,
        -1,
        -1
      ],
      "type": "VEC3"
    },
    {
      "bufferView": 16,
      "componentType": 5126,
      "count": 36,
      "max": [
        1,
        1,
        1
      ],
      "min": [
        -1,
        -1,
        -1
      ],
      "type": "VEC3"
    },
    {
      "bufferView": 17,
      "componentType": 5126,
      "count": 36,
      "max": [
        0.875,
        1
      ],
      "min": [
        0.125,
        0
      ],
      "type": "VEC2"
    },
    {
      "bufferView": 18,
      "componentType": 5126,
      "count": 36,
      "max": [
        1,
        1,
        1
      ],
      "min": [
        -1,
        -1,
        -1
      ],
      "type": "VEC3"
    },
    {
      "bufferView": 19,
      "componentType": 5126,
      "count": 36,
      "max": [
        1,
        1,
        1
      ],
      "min": [
        -1,
        -1,
        -1
      ],
      "type": "VEC3"
    },
    {
      "bufferView": 20,
      "componentType": 5126,
      "count": 36,
      "max": [
        0.875,
        1
      ],
      "min": [
        0.125,
        0
      ],
      "type": "VEC2"
    }
  ],
  "meshes": [
    {
      "primitives": [
        {
          "mode": 4,
          "attributes": {
            "POSITION": 0,
            "NORMAL": 1,
            "TEXCOORD_0": 2
          },
          "extras": {
            "parameters": {
              "width": 2,
              "height": 2,
              "depth": 2,
              "subdivisions": 0
            },
            "type": "NonParametricGeometry"
          }
        }
      ]
    },
    {
      "primitives": [
        {
          "mode": 4,
          "attributes": {
            "POSITION": 3,
            "NORMAL": 4,
            "TEXCOORD_0": 5
          },
          "extras": {
            "parameters": {
              "width": 2,
              "height": 2,
              "depth": 2,
              "subdivisions": 0
            },
            "type": "NonParametricGeometry"
          }
        }
      ]
    },
    {
      "primitives": [
        {
          "mode": 4,
          "attributes": {
            "POSITION": 6,
            "NORMAL": 7,
            "TEXCOORD_0": 8
          },
          "extras": {
            "parameters": {
              "width": 2,
              "height": 2,
              "depth": 2,
              "subdivisions": 0
            },
            "type": "NonParametricGeometry"
          }
        }
      ]
    },
    {
      "primitives": [
        {
          "mode": 4,
          "attributes": {
            "POSITION": 9,
            "NORMAL": 10,
            "TEXCOORD_0": 11
          },
          "extras": {
            "parameters": {
              "width": 2,
              "height": 2,
              "depth": 2,
              "subdivisions": 0
            },
            "type": "NonParametricGeometry"
          }
        }
      ]
    },
    {
      "primitives": [
        {
          "mode": 4,
          "attributes": {
            "POSITION": 12,
            "NORMAL": 13,
            "TEXCOORD_0": 14
          },
          "extras": {
            "parameters": {
              "width": 2,
              "height": 2,
              "depth": 2,
              "subdivisions": 0
            },
            "type": "NonParametricGeometry"
          }
        }
      ]
    },
    {
      "primitives": [
        {
          "mode": 4,
          "attributes": {
            "POSITION": 15,
            "NORMAL": 16,
            "TEXCOORD_0": 17
          },
          "extras": {
            "parameters": {
              "width": 2,
              "height": 2,
              "depth": 2,
              "subdivisions": 0
            },
            "type": "NonParametricGeometry"
          }
        }
      ]
    },
    {
      "primitives": [
        {
          "mode": 4,
          "attributes": {
            "POSITION": 18,
            "NORMAL": 19,
            "TEXCOORD_0": 20
          },
          "extras": {
            "parameters": {
              "width": 2,
              "height": 2,
              "depth": 2,
              "subdivisions": 0
            },
            "type": "NonParametricGeometry"
          }
        }
      ]
    }
  ],
  "cameras": [
    {
      "type": "perspective",
      "perspective": {
        "aspectRatio": 2.0048387096774194,
        "yfov": 0.7853981633974483,
        "zfar": 100000,
        "znear": 70
      },
      "name": "Camera"
    }
  ]
}