<svg width="78" height="85" viewBox="0 0 78 85" fill="none" xmlns="http://www.w3.org/2000/svg">
<g filter="url(#filter0_d_40_918)">
<rect x="4" width="20" height="21.7689" fill="#676767"/>
<rect x="4" y="27.2111" width="20" height="21.7689" fill="#333333"/>
<rect x="29" y="27.2111" width="20" height="21.7689" fill="#676767"/>
<rect x="54" y="27.2111" width="20" height="21.7689" fill="#333333"/>
<rect x="4" y="54.4222" width="20" height="21.7689" fill="#676767"/>
<rect x="29" y="54.4222" width="20" height="21.7689" fill="#333333"/>
<rect x="54" y="54.4222" width="20" height="21.7689" fill="#676767"/>
<rect x="29" width="20" height="21.7689" fill="#333333"/>
<rect x="54" width="20" height="21.7689" fill="#676767"/>
<rect x="30" y="28.2996" width="8" height="8.70756" rx="2" fill="#333333"/>
<rect x="55" y="1.08842" width="8" height="8.70756" rx="2" fill="#333333"/>
<rect x="5" y="1.08842" width="8" height="8.70756" rx="2" fill="#333333"/>
<rect x="5" y="55.5107" width="8" height="8.70756" rx="2" fill="#333333"/>
<rect x="55" y="55.5107" width="8" height="8.70756" rx="2" fill="#333333"/>
<rect x="55" y="28.2996" width="8" height="8.70756" rx="2" fill="#676767"/>
<rect x="30" y="55.5107" width="8" height="8.70756" rx="2" fill="#676767"/>
<rect x="5" y="28.2996" width="8" height="8.70756" rx="2" fill="#676767"/>
<rect x="30" y="1.08842" width="8" height="8.70756" rx="2" fill="#676767"/>
<rect x="40" y="28.2996" width="8" height="8.70756" rx="2" fill="#333333"/>
<rect x="65" y="1.08842" width="8" height="8.70756" rx="2" fill="#333333"/>
<rect x="15" y="1.08842" width="8" height="8.70756" rx="2" fill="#333333"/>
<rect x="15" y="55.5107" width="8" height="8.70756" rx="2" fill="#333333"/>
<rect x="65" y="55.5107" width="8" height="8.70756" rx="2" fill="#333333"/>
<rect x="65" y="28.2996" width="8" height="8.70756" rx="2" fill="#676767"/>
<rect x="40" y="55.5107" width="8" height="8.70756" rx="2" fill="#676767"/>
<rect x="15" y="28.2996" width="8" height="8.70756" rx="2" fill="#676767"/>
<rect x="40" y="1.08842" width="8" height="8.70756" rx="2" fill="#676767"/>
<rect x="40" y="39.184" width="8" height="8.70756" rx="2" fill="#333333"/>
<rect x="65" y="11.9729" width="8" height="8.70756" rx="2" fill="#333333"/>
<rect x="15" y="11.9729" width="8" height="8.70756" rx="2" fill="#333333"/>
<rect x="15" y="66.3951" width="8" height="8.70756" rx="2" fill="#333333"/>
<rect x="65" y="66.3951" width="8" height="8.70756" rx="2" fill="#333333"/>
<rect x="65" y="39.184" width="8" height="8.70756" rx="2" fill="#676767"/>
<rect x="40" y="66.3951" width="8" height="8.70756" rx="2" fill="#676767"/>
<rect x="15" y="39.184" width="8" height="8.70756" rx="2" fill="#676767"/>
<rect x="40" y="11.9729" width="8" height="8.70756" rx="2" fill="#676767"/>
<rect x="30" y="39.184" width="8" height="8.70756" rx="2" fill="#333333"/>
<rect x="55" y="11.9729" width="8" height="8.70756" rx="2" fill="#333333"/>
<rect x="5" y="11.9729" width="8" height="8.70756" rx="2" fill="#333333"/>
<rect x="5" y="66.3951" width="8" height="8.70756" rx="2" fill="#333333"/>
<rect x="55" y="66.3951" width="8" height="8.70756" rx="2" fill="#333333"/>
<rect x="55" y="39.184" width="8" height="8.70756" rx="2" fill="#676767"/>
<rect x="30" y="66.3951" width="8" height="8.70756" rx="2" fill="#676767"/>
<rect x="5" y="39.184" width="8" height="8.70756" rx="2" fill="#676767"/>
<rect x="30" y="11.9729" width="8" height="8.70756" rx="2" fill="#676767"/>
</g>
<defs>
<filter id="filter0_d_40_918" x="0" y="0" width="78" height="84.1911" filterUnits="userSpaceOnUse" color-interpolation-filters="sRGB">
<feFlood flood-opacity="0" result="BackgroundImageFix"/>
<feColorMatrix in="SourceAlpha" type="matrix" values="0 0 0 0 0 0 0 0 0 0 0 0 0 0 0 0 0 0 127 0" result="hardAlpha"/>
<feOffset dy="4"/>
<feGaussianBlur stdDeviation="2"/>
<feComposite in2="hardAlpha" operator="out"/>
<feColorMatrix type="matrix" values="0 0 0 0 0 0 0 0 0 0 0 0 0 0 0 0 0 0 0.25 0"/>
<feBlend mode="normal" in2="BackgroundImageFix" result="effect1_dropShadow_40_918"/>
<feBlend mode="normal" in="SourceGraphic" in2="effect1_dropShadow_40_918" result="shape"/>
</filter>
</defs>
</svg>
