<svg width="76" height="76" viewBox="0 0 76 76" fill="none" xmlns="http://www.w3.org/2000/svg">
<rect width="20" height="20" fill="#676767"/>
<rect y="25" width="20" height="20" fill="#333333"/>
<rect x="25" y="25" width="20" height="20" fill="#676767"/>
<rect x="50" y="25" width="20" height="20" fill="#333333"/>
<rect y="50" width="20" height="20" fill="#676767"/>
<rect x="25" y="50" width="20" height="20" fill="#333333"/>
<rect x="50" y="50" width="20" height="20" fill="#676767"/>
<rect x="25" width="20" height="20" fill="#333333"/>
<rect x="50" width="20" height="20" fill="#676767"/>
<rect x="26" y="26" width="8" height="8" rx="2" fill="#333333"/>
<rect x="51" y="0.999985" width="8" height="8" rx="2" fill="#333333"/>
<rect x="1" y="0.999985" width="8" height="8" rx="2" fill="#333333"/>
<rect x="1" y="51" width="8" height="8" rx="2" fill="#333333"/>
<rect x="51" y="51" width="8" height="8" rx="2" fill="#333333"/>
<rect x="51" y="26" width="8" height="8" rx="2" fill="#676767"/>
<rect x="26" y="51" width="8" height="8" rx="2" fill="#676767"/>
<rect x="1" y="26" width="8" height="8" rx="2" fill="#676767"/>
<rect x="26" y="0.999985" width="8" height="8" rx="2" fill="#676767"/>
<rect x="36" y="26" width="8" height="8" rx="2" fill="#333333"/>
<rect x="61" y="0.999985" width="8" height="8" rx="2" fill="#333333"/>
<rect x="11" y="0.999985" width="8" height="8" rx="2" fill="#333333"/>
<rect x="11" y="51" width="8" height="8" rx="2" fill="#333333"/>
<rect x="61" y="51" width="8" height="8" rx="2" fill="#333333"/>
<rect x="61" y="26" width="8" height="8" rx="2" fill="#676767"/>
<rect x="36" y="51" width="8" height="8" rx="2" fill="#676767"/>
<rect x="11" y="26" width="8" height="8" rx="2" fill="#676767"/>
<rect x="36" y="0.999985" width="8" height="8" rx="2" fill="#676767"/>
<rect x="36" y="36" width="8" height="8" rx="2" fill="#333333"/>
<rect x="61" y="11" width="8" height="8" rx="2" fill="#333333"/>
<rect x="11" y="11" width="8" height="8" rx="2" fill="#333333"/>
<rect x="11" y="61" width="8" height="8" rx="2" fill="#333333"/>
<rect x="61" y="61" width="8" height="8" rx="2" fill="#333333"/>
<rect x="61" y="36" width="8" height="8" rx="2" fill="#676767"/>
<rect x="36" y="61" width="8" height="8" rx="2" fill="#676767"/>
<rect x="11" y="36" width="8" height="8" rx="2" fill="#676767"/>
<rect x="36" y="11" width="8" height="8" rx="2" fill="#676767"/>
<rect x="26" y="36" width="8" height="8" rx="2" fill="#333333"/>
<rect x="51" y="11" width="8" height="8" rx="2" fill="#333333"/>
<rect x="1" y="11" width="8" height="8" rx="2" fill="#333333"/>
<rect x="1" y="61" width="8" height="8" rx="2" fill="#333333"/>
<rect x="51" y="61" width="8" height="8" rx="2" fill="#333333"/>
<rect x="51" y="36" width="8" height="8" rx="2" fill="#676767"/>
<rect x="26" y="61" width="8" height="8" rx="2" fill="#676767"/>
<rect x="1" y="36" width="8" height="8" rx="2" fill="#676767"/>
<rect x="26" y="11" width="8" height="8" rx="2" fill="#676767"/>
</svg>
