<?xml version="1.0" encoding="UTF-8" standalone="no"?>
<!-- Created with Inkscape (http://www.inkscape.org/) -->

<svg
   width="200"
   height="200"
   viewBox="0 0 52.916665 52.916666"
   version="1.1"
   id="svg1"
   sodipodi:docname="bnbpah.svg"
   xml:space="preserve"
   inkscape:version="1.3 (0e150ed6c4, 2023-07-21)"
   inkscape:export-filename="bnbpah.svg"
   inkscape:export-xdpi="24.190475"
   inkscape:export-ydpi="24.190475"
   xmlns:inkscape="http://www.inkscape.org/namespaces/inkscape"
   xmlns:sodipodi="http://sodipodi.sourceforge.net/DTD/sodipodi-0.dtd"
   xmlns="http://www.w3.org/2000/svg"
   xmlns:svg="http://www.w3.org/2000/svg"><sodipodi:namedview
     id="namedview1"
     pagecolor="#ffffff"
     bordercolor="#000000"
     borderopacity="0.25"
     inkscape:showpageshadow="2"
     inkscape:pageopacity="0.0"
     inkscape:pagecheckerboard="0"
     inkscape:deskcolor="#d1d1d1"
     inkscape:document-units="px"
     inkscape:zoom="1.5064142"
     inkscape:cx="-8.9616784"
     inkscape:cy="82.314675"
     inkscape:window-width="1320"
     inkscape:window-height="589"
     inkscape:window-x="-8"
     inkscape:window-y="-8"
     inkscape:window-maximized="1"
     inkscape:current-layer="svg1" /><defs
     id="defs1" /><style
     type="text/css"
     id="style1">&#10;	.st0{fill:#8247E5;}&#10;</style><path
     d="m 11.72963,39.723611 q 3.10298,-2.37287 6.936074,-3.741831 3.833094,-1.368961 8.031244,-1.368961 4.198151,0 8.031245,1.368961 3.833094,1.368961 6.936075,3.741831 2.129496,-2.494554 3.31593,-5.658384 1.186434,-3.16382 1.186434,-6.753539 0,-8.092091 -5.688799,-13.780885 -5.688797,-5.6888019 -13.780885,-5.6888019 -8.092086,0 -13.780885,5.6888019 -5.6887977,5.688794 -5.6887977,13.780885 0,3.589719 1.1864341,6.753539 1.186434,3.16383 3.3159306,5.658384 z m 14.967318,-9.978216 q -3.589722,0 -6.053854,-2.464135 -2.464132,-2.464126 -2.464132,-6.053855 0,-3.589719 2.464132,-6.053854 2.464132,-2.464126 6.053854,-2.464126 3.589723,0 6.053856,2.464126 2.464131,2.464135 2.464131,6.053854 0,3.589729 -2.464131,6.053855 -2.464133,2.464135 -6.053856,2.464135 z m 0,21.903394 q -5.049949,0 -9.49147,-1.916543 Q 12.763957,47.815693 9.4784476,44.530188 6.1929385,41.244675 4.2763913,36.803158 2.359845,32.361633 2.359845,27.311688 q 0,-5.049955 1.9165463,-9.491471 1.9165472,-4.441525 5.2020563,-7.72703 3.2855094,-3.2855136 7.7270304,-5.2020572 4.441521,-1.9165527 9.49147,-1.9165527 5.049949,0 9.491471,1.9165527 4.441522,1.9165436 7.727031,5.2020572 3.285509,3.285505 5.202055,7.72703 1.916547,4.441516 1.916547,9.491471 0,5.049945 -1.916547,9.49147 -1.916546,4.441517 -5.202055,7.72703 -3.285509,3.285505 -7.727031,5.202058 -4.441522,1.916543 -9.491471,1.916543 z m 0,-4.867424 q 3.224666,0 6.084276,-0.943062 2.859611,-0.943063 5.232478,-2.707503 -2.372867,-1.764441 -5.232478,-2.707504 -2.85961,-0.943062 -6.084276,-0.943062 -3.224666,0 -6.084276,0.943062 -2.859609,0.943063 -5.232476,2.707504 2.372867,1.76444 5.232476,2.707503 2.85961,0.943062 6.084276,0.943062 z m 0,-21.903394 q 1.581912,0 2.616239,-1.034328 1.034327,-1.034327 1.034327,-2.616238 0,-1.58191 -1.034327,-2.616237 -1.034327,-1.034328 -2.616239,-1.034328 -1.581911,0 -2.616238,1.034328 -1.034327,1.034327 -1.034327,2.616237 0,1.581911 1.034327,2.616238 1.034327,1.034328 2.616238,1.034328 z m 0,-3.650566 z m 0,21.903395 z"
     id="path1"
     style="stroke:#ffffff;stroke-width:0.0608427;stroke-opacity:1" /></svg>
