<?xml version="1.0" encoding="UTF-8" standalone="no"?>
<!-- Created with Inkscape (http://www.inkscape.org/) -->

<svg
   width="200"
   height="200"
   viewBox="0 0 52.916665 52.916666"
   version="1.1"
   id="svg1"
   sodipodi:docname="bnbpah.svg"
   xml:space="preserve"
   inkscape:version="1.3 (0e150ed6c4, 2023-07-21)"
   inkscape:export-filename="Desktop\annonlogo\path\account.svg"
   inkscape:export-xdpi="24.190475"
   inkscape:export-ydpi="24.190475"
   xmlns:inkscape="http://www.inkscape.org/namespaces/inkscape"
   xmlns:sodipodi="http://sodipodi.sourceforge.net/DTD/sodipodi-0.dtd"
   xmlns="http://www.w3.org/2000/svg"
   xmlns:svg="http://www.w3.org/2000/svg"><sodipodi:namedview
     id="namedview1"
     pagecolor="#ffffff"
     bordercolor="#000000"
     borderopacity="0.25"
     inkscape:showpageshadow="2"
     inkscape:pageopacity="0.0"
     inkscape:pagecheckerboard="0"
     inkscape:deskcolor="#d1d1d1"
     inkscape:document-units="px"
     inkscape:zoom="1.5064142"
     inkscape:cx="-8.9616784"
     inkscape:cy="82.314675"
     inkscape:window-width="1320"
     inkscape:window-height="589"
     inkscape:window-x="-8"
     inkscape:window-y="-8"
     inkscape:window-maximized="1"
     inkscape:current-layer="svg1" /><defs
     id="defs1" /><style
     type="text/css"
     id="style1">&#10;	.st0{fill:#8247E5;}&#10;</style><path
     d="M 22.923695,49.88549 Q 18.514788,49.546322 14.699389,47.681043 10.883989,45.81573 8.0577677,42.791674 5.2315453,39.767618 3.620598,35.782646 2.0096516,31.797674 2.0096516,27.332243 q 0,-4.691533 1.7805202,-8.817813 1.7805201,-4.126288 4.8328401,-7.178603 3.0523191,-3.0523239 7.1786041,-4.8328407 4.126283,-1.7805253 8.817812,-1.7805253 4.691529,0 8.817813,1.7805253 4.126285,1.7805168 7.1786,4.8328407 3.052325,3.052315 4.832841,7.178603 1.780526,4.12628 1.780526,8.817813 v 1.073964 Q 46.268291,27.784442 44.996492,27.190928 43.724685,26.597448 42.650721,26.201752 42.198531,19.079668 37.02654,14.162047 31.854557,9.2444193 24.619428,9.2444193 q -3.165368,0 -5.963328,1.0174357 -2.79796,1.017444 -5.115462,2.826229 l 13.848488,13.848489 q -1.073965,0.452224 -2.063142,1.045696 -0.989178,0.593479 -1.950093,1.271798 L 10.375269,16.253447 q -1.8087817,2.317503 -2.8262217,5.115464 -1.01744,2.797961 -1.01744,5.963332 0,5.595914 3.0240577,10.033085 3.024057,4.43717 7.828635,6.528569 1.01744,1.582691 2.543599,3.2219 1.526161,1.63921 2.995796,2.769693 z m 13.000622,-4.46543 q 3.334938,0 6.189427,-1.526163 2.85448,-1.526153 4.550218,-4.126279 -1.695738,-2.600126 -4.550218,-4.126288 -2.854489,-1.526153 -6.189427,-1.526153 -3.334942,0 -6.189427,1.526153 -2.854484,1.526162 -4.550217,4.126288 1.695733,2.600126 4.550217,4.126279 2.854485,1.526163 6.189427,1.526163 z m 0,4.521958 q -5.426347,0 -9.693942,-2.854489 -4.267596,-2.854481 -6.132902,-7.319911 1.865306,-4.46543 6.132902,-7.319919 4.267595,-2.854481 9.693942,-2.854481 5.426346,0 9.693941,2.854481 4.267595,2.854489 6.132899,7.319919 -1.865304,4.46543 -6.132899,7.319911 -4.267595,2.854489 -9.693941,2.854489 z m 0,-6.782933 q -1.413111,0 -2.402289,-0.989176 -0.989178,-0.989185 -0.989178,-2.402291 0,-1.413115 0.989178,-2.40229 0.989178,-0.989176 2.402289,-0.989176 1.413114,0 2.40229,0.989176 0.989176,0.989175 0.989176,2.40229 0,1.413106 -0.989176,2.402291 -0.989176,0.989176 -2.40229,0.989176 z"
     id="path1"
     style="stroke-width:0.0565244" /></svg>
